<svg id="Warstwa_1" data-name="Warstwa 1" xmlns="http://www.w3.org/2000/svg" viewBox="0 0 38.01 38"><defs><style>.cls-1{fill:#fff;}</style></defs><title>Artboard 840-extended</title><path class="cls-1" d="M38,19c0,3.83,0,7.67,0,11.5a7.21,7.21,0,0,1-4.46,6.91,6.72,6.72,0,0,1-2.88.59c-7.76,0-15.53,0-23.29,0A7.28,7.28,0,0,1,0,30.59Q0,19,0,7.42A7.28,7.28,0,0,1,7.35,0Q19,0,30.64,0A7.3,7.3,0,0,1,38,7.5C38,11.34,38,15.17,38,19Zm-9.29-3.87c1.54,5.1.42,9.35-3.94,12.47A10.36,10.36,0,0,1,9.37,22.89a10.32,10.32,0,0,1,0-7.75H3.72c0,.16,0,.28,0,.41q0,7.49,0,15A3.63,3.63,0,0,0,7.51,34.3h23a3.65,3.65,0,0,0,3.83-3.84q0-7.42,0-14.85v-.48Zm-3,3.89a6.69,6.69,0,1,0-6.8,6.66A6.7,6.7,0,0,0,25.68,19Zm1.5-8.22h6.39V4.41H27.18Z"/></svg>