<svg id="Warstwa_1" data-name="Warstwa 1" xmlns="http://www.w3.org/2000/svg" viewBox="0 0 38.01 38"><defs><style>.cls-1{fill:#fff}</style></defs><title>Artboard 840-extended</title><path class="cls-1" d="M38 19v11.5a7.21 7.21 0 0 1-4.46 6.91 6.72 6.72 0 0 1-2.88.59H7.37A7.28 7.28 0 0 1 0 30.59V7.42A7.28 7.28 0 0 1 7.35 0h23.29A7.3 7.3 0 0 1 38 7.5V19zm-9.29-3.87c1.54 5.1.42 9.35-3.94 12.47a10.36 10.36 0 0 1-15.4-4.71 10.32 10.32 0 0 1 0-7.75H3.72v15.41a3.63 3.63 0 0 0 3.79 3.75h23a3.65 3.65 0 0 0 3.83-3.84V15.13zm-3 3.89a6.69 6.69 0 1 0-6.8 6.66A6.7 6.7 0 0 0 25.68 19zm1.5-8.22h6.39V4.41h-6.42z"/></svg>