<svg id="Warstwa_1" data-name="Warstwa 1" xmlns="http://www.w3.org/2000/svg" viewBox="0 0 39.76 38"><defs><style>.cls-1{fill:#fff;}</style></defs><title>Artboard 1740-extended</title><path class="cls-1" d="M.5,12.36H9V38H.5ZM4.82,0C1.91,0,0,1.91,0,4.43A4.41,4.41,0,0,0,4.71,8.86h.05c3,0,4.82-2,4.82-4.43A4.43,4.43,0,0,0,4.82,0ZM29.94,11.76A8.46,8.46,0,0,0,22.26,16V12.36H13.74c.11,2.41,0,25.64,0,25.64h8.52V23.68a5.87,5.87,0,0,1,.28-2.08,4.67,4.67,0,0,1,4.37-3.12c3.09,0,4.32,2.35,4.32,5.8V38h8.52V23.3C39.76,15.42,35.55,11.76,29.94,11.76Z"/></svg>