<svg id="Warstwa_1" data-name="Warstwa 1" xmlns="http://www.w3.org/2000/svg" viewBox="0 0 38 38"><defs><style>.cls-1{fill:#fff}</style></defs><title>Artboard 1940-extended</title><path class="cls-1" d="M19 0a19 19 0 1 0 19 19A19 19 0 0 0 19 0m-1.34 10.6a20 20 0 0 1-5.3-1 15.82 15.82 0 0 1 5.3-6.27zm0 2.68v4.38h-7.39A21.9 21.9 0 0 1 11.35 12a22.77 22.77 0 0 0 6.32 1.25m0 7.06v4.33a22.75 22.75 0 0 0-6.34 1.26 21.72 21.72 0 0 1-1-5.6zm0 7v7.42a15.85 15.85 0 0 1-5.34-6.35 20 20 0 0 1 5.34-1.07m2.68 0a20 20 0 0 1 5.34 1.07 15.87 15.87 0 0 1-5.34 6.35zm0-2.68v-4.29h7.39a21.73 21.73 0 0 1-1 5.6 22.72 22.72 0 0 0-6.34-1.26m0-7v-4.4A22.79 22.79 0 0 0 26.65 12a21.92 21.92 0 0 1 1.07 5.63zm0-7.06V3.28a15.81 15.81 0 0 1 5.3 6.26 20 20 0 0 1-5.3 1M25 3.83a16.36 16.36 0 0 1 5.22 3.34 16.48 16.48 0 0 1-2.12 1.32A19.85 19.85 0 0 0 25 3.83M9.9 8.49a16.46 16.46 0 0 1-2.12-1.33A16.3 16.3 0 0 1 13 3.83a20 20 0 0 0-3.1 4.66M8.88 11a24.65 24.65 0 0 0-1.28 6.66H2.74A16.23 16.23 0 0 1 6 9.16 18.75 18.75 0 0 0 8.88 11m-1.29 9.34A24.75 24.75 0 0 0 8.85 27 19 19 0 0 0 6 28.81a16.21 16.21 0 0 1-3.23-8.47h4.82zm2.27 9.15a20.08 20.08 0 0 0 3.06 4.66 16.38 16.38 0 0 1-5.16-3.33 16.17 16.17 0 0 1 2.1-1.32m18.28 0a16 16 0 0 1 2.1 1.32 16.3 16.3 0 0 1-5.16 3.33 20 20 0 0 0 3.06-4.65m1-2.49a24.86 24.86 0 0 0 1.26-6.66h4.85A16.22 16.22 0 0 1 32 28.81 19.13 19.13 0 0 0 29.15 27m1.25-9.34A24.75 24.75 0 0 0 29.12 11 18.7 18.7 0 0 0 32 9.16a16.22 16.22 0 0 1 3.25 8.5H30.4z"/></svg>