<svg id="Warstwa_1" data-name="Warstwa 1" xmlns="http://www.w3.org/2000/svg" viewBox="0 0 38.96 38"><defs><style>.cls-1{fill:#fff;}</style></defs><title>Artboard 1040-extended</title><path class="cls-1" d="M19.48,0a19.48,19.48,0,0,0-6.16,38c1,.18,1.28-.4,1.28-.92s0-1.76,0-3.38C9.19,34.85,8.06,31.1,8.06,31.1A5.16,5.16,0,0,0,5.9,28.25C4.13,27,6,27.07,6,27.07a4.1,4.1,0,0,1,3,2,4.15,4.15,0,0,0,5.67,1.62,4.17,4.17,0,0,1,1.24-2.6c-4.33-.49-8.87-2.16-8.87-9.63a7.53,7.53,0,0,1,2-5.23,7,7,0,0,1,.19-5.16s1.64-.52,5.36,2a18.48,18.48,0,0,1,9.75,0c3.72-2.52,5.35-2,5.35-2a7,7,0,0,1,.19,5.16,7.53,7.53,0,0,1,2,5.23c0,7.48-4.55,9.13-8.89,9.61a4.61,4.61,0,0,1,1.33,3.59v5.39c0,.52.31,1.1,1.3.91A19.48,19.48,0,0,0,19.48,0Z"/></svg>