<svg id="Warstwa_1" data-name="Warstwa 1" xmlns="http://www.w3.org/2000/svg" viewBox="0 0 43.42 38"><defs><style>.cls-1{fill:#fff;}</style></defs><title>Artboard 740-extended</title><g id="google_plus" data-name="google plus"><path class="cls-1" d="M36.64,6.78V0H33.92V6.78H27.14V9.54h6.78v6.74h2.71V9.54h6.78V6.78ZM24.07,0H12.61c-5.13,0-10,4.15-10,8.65a8.38,8.38,0,0,0,8.72,8.45c.36,0,.72.06,1.06,0a4.81,4.81,0,0,0-.58,2.17,4.48,4.48,0,0,0,1.56,3.18l-2,0C5.06,22.51,0,26.57,0,30.77S5.53,38,11.9,38c7.25,0,11.17-4.62,11.17-8.76,0-3.32-.89-5.3-3.92-7.44-1-.73-3-2.52-3-3.56,0-1.23.35-1.83,2.2-3.28s3.36-3.39,3.36-5.81a7.1,7.1,0,0,0-3.82-6.44H21.5Zm-4,28.53a5.16,5.16,0,0,1,.14,1.18c0,3.34-2.15,5.61-8.33,5.61-4.4,0-7.57-2.44-7.57-5.79s3.94-6,8.33-6a9.53,9.53,0,0,1,2.85.46C17.87,25.7,19.58,26.64,20.06,28.53ZM13,16.06c-3-.09-5.75-3.3-6.26-7.18S8.23,2,11.18,2.14s5.88,3.2,6.39,7.07S16,16.15,13,16.06Z"/></g></svg>