<svg id="Warstwa_1" data-name="Warstwa 1" xmlns="http://www.w3.org/2000/svg" viewBox="0 0 46.77 38"><defs><style>.cls-1{fill:#fff;fill-rule:evenodd;}</style></defs><title>Artboard 540-extended</title><g id="twitter"><path class="cls-1" d="M46.77,4.57a16.9,16.9,0,0,1-5.35,1.52,10.25,10.25,0,0,0,4-5.24,15.59,15.59,0,0,1-6,2.14h0A9.65,9.65,0,0,0,23,11.8h0a26.72,26.72,0,0,1-19.89-10A9.65,9.65,0,0,0,6.08,14.54c-1.14.09-3.23-.13-4.21-1.09-.07,3.36,1.55,7.81,7.44,9.43a7.64,7.64,0,0,1-4,.31c.31,2.84,4.28,6.55,8.63,6.55-1.55,1.79-7.37,5-13.91,4A29,29,0,0,0,15.09,38a26.8,26.8,0,0,0,27-28.18s0,0,0-.05,0-.08,0-.12,0-.09,0-.14A16.64,16.64,0,0,0,46.77,4.57Z"/></g></svg>