<svg id="Warstwa_1" data-name="Warstwa 1" xmlns="http://www.w3.org/2000/svg" viewBox="0 0 38.85 38"><defs><style>.cls-1{fill:#fff}</style></defs><title>Artboard 1240-extended</title><path class="cls-1" d="M31.75 18.1H7.1A7.1 7.1 0 0 0 0 25.2v5.7A7.1 7.1 0 0 0 7.1 38h24.65a7.1 7.1 0 0 0 7.1-7.1v-5.7a7.1 7.1 0 0 0-7.1-7.1zm-19.47 4.44H10v11.39H7.77V22.54H5.48V20.6h6.8zm6.48 11.39h-2v-1.08a4.2 4.2 0 0 1-1.13.91 2.37 2.37 0 0 1-1.14.31 1.22 1.22 0 0 1-1-.44 2.12 2.12 0 0 1-.34-1.32V24.1h2v7.54a.84.84 0 0 0 .12.5.48.48 0 0 0 .4.16 1.12 1.12 0 0 0 .55-.21 2.65 2.65 0 0 0 .61-.53V24.1h2zm7.13-2a2.45 2.45 0 0 1-.46 1.6 1.63 1.63 0 0 1-1.34.56 2.34 2.34 0 0 1-1-.21 2.53 2.53 0 0 1-.84-.67v.75h-2V20.6h2v4.29a3.07 3.07 0 0 1 .84-.68A1.93 1.93 0 0 1 24 24a1.7 1.7 0 0 1 1.42.63 2.93 2.93 0 0 1 .49 1.84v5.43zm6.81-2.65h-3.76v1.82a2.14 2.14 0 0 0 .19 1.08.73.73 0 0 0 .67.3.81.81 0 0 0 .68-.25 2.12 2.12 0 0 0 .19-1.12v-.45h2v.5a3.15 3.15 0 0 1-.67 2.28 2.93 2.93 0 0 1-2.2.76 2.71 2.71 0 0 1-2.08-.81 3.14 3.14 0 0 1-.76-2.23v-4.42a2.77 2.77 0 0 1 .84-2.09 3 3 0 0 1 2.15-.8 2.76 2.76 0 0 1 2.05.75 3 3 0 0 1 .72 2.14z"/><path class="cls-1" d="M29.82 25.57a.78.78 0 0 0-.67.27 1.43 1.43 0 0 0-.2.88v1h1.74v-1a1.44 1.44 0 0 0-.21-.88.75.75 0 0 0-.66-.27zM23 25.54a1 1 0 0 0-.42.1 1.41 1.41 0 0 0-.41.3v6.13a1.68 1.68 0 0 0 .47.35 1.16 1.16 0 0 0 .48.11.64.64 0 0 0 .53-.21 1.08 1.08 0 0 0 .17-.68v-5.09a1.18 1.18 0 0 0-.21-.76.76.76 0 0 0-.61-.25zM10.32 14.68h2.49V8.59L15.71 0h-2.53l-1.54 5.87h-.16L9.87 0H7.36l2.96 8.87v5.81zm8.77.32a3.37 3.37 0 0 0 2.37-.79 2.82 2.82 0 0 0 .86-2.21V6.39a2.61 2.61 0 0 0-.87-2 3.26 3.26 0 0 0-2.25-.78 3.63 3.63 0 0 0-2.4.75 2.48 2.48 0 0 0-.89 2v5.61a2.87 2.87 0 0 0 .87 2.2 3.26 3.26 0 0 0 2.31.83zm-.92-8.71a.74.74 0 0 1 .25-.57 1 1 0 0 1 .66-.22 1.09 1.09 0 0 1 .71.22.71.71 0 0 1 .27.57v5.9a.89.89 0 0 1-.27.68 1 1 0 0 1-.71.25.89.89 0 0 1-.68-.25 1 1 0 0 1-.24-.69V6.25zm7.49 8.55a2.78 2.78 0 0 0 1.28-.35 4.69 4.69 0 0 0 1.27-1v1.2h2.21V3.85h-2.21v8.22a3.06 3.06 0 0 1-.68.58 1.28 1.28 0 0 1-.62.23.53.53 0 0 1-.45-.18.89.89 0 0 1-.14-.55v-8.3h-2.21v9.05a2.28 2.28 0 0 0 .39 1.45 1.39 1.39 0 0 0 1.16.49z"/></svg>